<svg id="visual" viewBox="0 0 960 300" width="960" height="300" xmlns="http://www.w3.org/2000/svg" xmlns:xlink="http://www.w3.org/1999/xlink" version="1.1"><rect x="0" y="0" width="960" height="300" fill="#FFFFFF"></rect><path d="M0 89L22.8 82.2C45.7 75.3 91.3 61.7 137 62.3C182.7 63 228.3 78 274 79.7C319.7 81.3 365.3 69.7 411.2 65.8C457 62 503 66 548.8 68.2C594.7 70.3 640.3 70.7 686 76.3C731.7 82 777.3 93 823 96.2C868.7 99.3 914.3 94.7 937.2 92.3L960 90L960 0L937.2 0C914.3 0 868.7 0 823 0C777.3 0 731.7 0 686 0C640.3 0 594.7 0 548.8 0C503 0 457 0 411.2 0C365.3 0 319.7 0 274 0C228.3 0 182.7 0 137 0C91.3 0 45.7 0 22.8 0L0 0Z" fill="#ef2c60" stroke-linecap="round" stroke-linejoin="miter"></path></svg>